Serie documentaire en 2 saisons (6 épisodesx2)


01.Les Complices d Hitler - Hess, le suppleant.avi
02.Les Complices d Hitler - Donitz, Le Successeur.avi
03.Les Complices d Hitler - Eichmann, l exterminateur.avi
04.Les Complices d Hitler - Goering, le numero deux.avi
05.Les Complices d Hitler - Himmler, l executeur.avi


Format                                   : AVI
Format/Info                              : Audio Video Interleave
File size                                : 351 MiB
Duration                                 : 53mn 11s
Overall bit rate                         : 922 Kbps
Writing application                      : VirtualDubMod 1.5.10.2 Fr | www.trad-fr.com ||  (build 2540/release)
Writing library                          : VirtualDubMod build 2540/release

Video
ID                                       : 0
Format                                   : MPEG-4 Visual
Format settings, BVOP                    : 1
Format settings, QPel                    : No
Format settings, GMC                     : No warppoints
Format settings, Matrix                  : Default (H.263)
Muxing mode                              : Packed bitstream
Codec ID                                 : DX50
Codec ID/Hint                            : DivX 5
Duration                                 : 53mn 11s
Bit rate                                 : 800 Kbps
Width                                    : 576 pixels
Height                                   : 432 pixels
Display aspect ratio                     : 5:4
Original display aspect ratio            : 4:3
Frame rate                               : 25.000 fps
Color space                              : YUV
Chroma subsampling                       : 4:2:0
Bit depth                                : 8 bits
Scan type                                : Progressive
Compression mode                         : Lossy
Bits/(Pixel*Frame)                       : 0.129
Stream size                              : 305 MiB (87%)
Writing library                          : DivX 6.8.0 (UTC 2007-12-04)

Audio
ID                                       : 1
Format                                   : MPEG Audio
Format version                           : Version 1
Format profile                           : Layer 3
Mode                                     : Joint stereo
Mode extension                           : MS Stereo
Codec ID                                 : 55
Codec ID/Hint                            : MP3
Duration                                 : 53mn 11s
Bit rate mode                            : Constant
Bit rate                                 : 112 Kbps
Channel(s)                               : 2 channels
Sampling rate                            : 48.0 KHz
Compression mode                         : Lossy
Stream size                              : 42.6 MiB (12%)
Alignment                                : Split accross interleaves
Interleave, duration                     : 40 ms (1.00 video frame)
Interleave, preload duration             : 500 ms
